<mxfile host="app.diagrams.net" modified="2023-02-21T00:36:54.077Z" agent="5.0 (Windows NT 10.0; Win64; x64) AppleWebKit/537.36 (KHTML, like Gecko) Chrome/110.0.0.0 Safari/537.36" etag="rdk94Wxk_zHoUxo9ifHi" version="20.8.20" type="github">
  <diagram name="페이지-1" id="7o3w4uXIKX3_cVfn29h3">
    <mxGraphModel dx="1434" dy="764" grid="1" gridSize="10" guides="1" tooltips="1" connect="1" arrows="1" fold="1" page="1" pageScale="1" pageWidth="1169" pageHeight="827" math="0" shadow="0">
      <root>
        <mxCell id="0" />
        <mxCell id="1" parent="0" />
        <mxCell id="wY5E-rM3v8plbLJVekBO-1" value="" style="rounded=0;whiteSpace=wrap;html=1;strokeWidth=2;" vertex="1" parent="1">
          <mxGeometry x="225" y="380" width="720" height="419" as="geometry" />
        </mxCell>
        <mxCell id="wY5E-rM3v8plbLJVekBO-2" value="" style="rounded=1;whiteSpace=wrap;html=1;strokeWidth=2;fillWeight=4;hachureGap=8;hachureAngle=45;fillColor=#1ba1e2;sketch=1;" vertex="1" parent="1">
          <mxGeometry x="230" y="480" width="710" height="319" as="geometry" />
        </mxCell>
        <mxCell id="wY5E-rM3v8plbLJVekBO-4" value="" style="verticalLabelPosition=bottom;verticalAlign=top;html=1;shape=mxgraph.basic.patternFillRect;fillStyle=diag;step=5;fillStrokeWidth=0.2;fillStrokeColor=#dddddd;strokeWidth=2;fillColor=#f5f5f5;fontColor=#333333;strokeColor=#666666;" vertex="1" parent="1">
          <mxGeometry x="220" y="360" width="730" height="30" as="geometry" />
        </mxCell>
        <mxCell id="wY5E-rM3v8plbLJVekBO-10" value="" style="shape=image;verticalLabelPosition=bottom;labelBackgroundColor=default;verticalAlign=top;aspect=fixed;imageAspect=0;image=data:image/png,iVBORw0KGgoAAAANSUhEUgAAAEgAAABICAYAAABV7bNHAAAAAXNSR0IArs4c6QAAGGVJREFUeF7tXGmQFFW6PblUVXfTu9DQbdPs0M0OTxFGwVGUMVABwQXfKCIOjvs4+iZmxlki9D1jNCbGN/PejAtuuKGiouIIuCGL4AIIyA7KTtMs0k3vtWTmi+8umTezsjcUY368jqjorqqszLznft855/vurdbw/z+tIqD9C+ETvBfnX+HefmiA5PXot3wQDi3dhwSJfssHHf+DgfdDAKSCoc+8Y3m5mdF1VNTMHqIj1h9mrEzXsgbRmDUxbMfmGNhWwxbbSe5HKr4rkaj7KtFcueb5py7aBoCOCIJ2WgLudAGkgmLcePfGSbGsoktNI/ciB9FSK6XBsmxYFuDYGmxLBIVDzx1oFFCOA11zoOkaTB3QNBsRQ4djxw86Tt2HiaYj7z71xMiFAOjTpw2s7xsgCYz+05s/qMguLL8pmlF0vW2ZhckkkEoBtk0o8MlmkeIQIOKHDVO8L4+R7wsICDTTACImoBvWiUTi6Av19VuffmnupdsDYH0vEfV9AqQDMGbcsmJEbud+98AsuiaRBOJxG5otLsPGzlPJYUDQ6xwQdgR73Ybm0Kn463QYIykCloFKB1OMcWAJqGiUovDoq/VNux55/unx679PoL4PgOgcxsSr/tG5R//J9xuRkpsZMAkRGTQuwSkMGJdiHfG6pNx0DvLRsgDIpWcRWZyvgGjEQTSiw7EOzzlw6O0/Llx493GFq045mr4rQDTV5s33bpsZy+3xX83xWBcXGDciHOgiUmTUsLihkTkaiySWl0rasfdtm0UKB0mCp7HXNY1+yw940UeXjJg2MjKsY/GG3b+f8+yIuQBSAQXsEFinChB9jsCJ3Pr7yjma0e36pmaHc4oqwr7BiXSRM++Kthi8C5AXeTza+HPv3Mr78vyCuvi1HXZjGRkE/tEXHpvT82YAyVONplMBiKXUNT9fMqhLyZhnE8nsEfG4UB4RGRqLGDlvLtv6OMcjapuplstBEmQlgliUqY5IRBhXOzkpHkdJFYxFgUi04ctjR1bNevXNqVsUbmp3FHUUIDrevO6uleMLOo9Z2BTXI1aKIoeTLU8dhVPkYCVaSoTJ1PJ4RhCUOEZ9n59T4TQRKSpH0TEcZEUFHcDQHWRlOckTtasmvfjyJR8pKdcukDoCEANnxi8/m5iTd9Zrjc1ahNGIuDHOKUxvhErxyGCvuKolfA7jFjH1RDWSc0REuEAHIsXlK6lmpGXESfwqfMDMRwm1E36KFC+rE5KNjWuvenbehYs6AlJ7AXIjJ++MMQubmvQIJ1wPIDZ5ilqlqY1r5TxylQPy0lHhHDV1fEVGOif5eE8A5FoEKQIAMjs5yfqTqyfNfa39kdQegBjnTL3ulaHF/a78rLFJi7CLMxURqSX9itBwlS+kWrkcw3wQ/5xbMIiZ5xnCz0uzzq8jMkGolwt8wBe5KShTlEUW5ygZeboGZGY6ycrKhaMXvHf9V+3hpPYAZJAo3PqHmpXxVO4IecO8JPBUK51I031NqA+SkaKcT+Ucv3p5qUmvS86R3oo9d4FTOElRVs1xkJFVv+Efc0vOA9Dclrq1BRApZuzW+w7OiTvdrrMtkk6Z7TLFlIgQqcBPSuTN3bLLMcLX+AfCEZI8wjkl3eewCWH+x4sMGXGSc6R68ed88uh4XVxX0gIrVWJVLz76/IDZABLSyoaxdmsA0XuRG+/58qZo1vBHE0nP57QaOUpt5au1XBcd4mtkFAlyddOxXeqlqJvqi1zFFFSgiAIBQc47bm++7dlXz31a+CTlLjyoWgKI8c64Cb8rHjjqvi+b4hmdvQNlLeXJuVpLyRrKq6/V0furdR+5MtKX9Rmf+SCHpKuTJ4YsUhTO8d+T/3xSUDKzEsc37/zTyBVrHjncEh+1BBBLrdm/2fP3lFM2S/U5aWrl5rffzLmc5BbvnmNul69R1EgC6QEkJ0ex0ConKanOSZ8fz8RDPKfoJtI2M/c/8/hLQ+4AEA9LtTCAmKRPvu7l0UVlV6+g2opyWKoR4wtZdSs+x62+lX4O5wjV59BnBUMJTuF9H36MrvOZppuXfBfGIS5QLiep502PPD6p3O27vkncRyTi4Nvat8a9/t6Nn4X5ozCAKHoyb/71vucSduk0fxrwqfDZ/kA/x1W3AOdIee6UCeTnAbk5GjplAVmZ1K6gIlODQXoJB1YKSCWBRAJoarTR0ADUnnRQU+OgoY4DKAPDLWTdWi5d3dikKsUtmzQlsiKxqjcen18+Q1E1l4SCALHomTj96WFn9p65htoWXiXNw5QiieW6klr+fh5XNRZx0Fh05OVqKC4CirtpKOqi4YxCDYUFQE62hsxM8iYaK9zVH7p/qvEaCZw6B9UnbHx73MGxIw6OVNk4dNBCTTWB6XUg/erFVa8tx07vUz9p38kXzl70wZ0bg1EUBIhxz033bP9Lyuh3q1QT2cTRArVVsIfsPncoIhx066Khby8NPXvoKC3R0LWIAxIEI0xew14j0JqbHBw94uDgARv799r4ekcKhw/ZSMRlKgeceqCkIUBkvSh9FF1Lj+15bM5rI/8jGEVBgEwA2bN/27w7njAKWM4SR0jnK8lOVO08cjyfQzNGEVPSVcOQgRoG9NdRVqqxdCJ+8UeI8D8CLUbqIchJkpXvyeNokLW1Dg7stbBzm4Wvvkzi8CEHqaS09ZLrPHXzuChQE9pU9aeqH3+zqDeAehFF7HZVgOjv6PTZ716dmX/J89zDBDhHsC4LZaW2kpGWmwsMG6hh5DAdPXtoLIVONVo6ElX1dQ727rawcW0KG9amcLLaYb1vXwa00leS42y0l8+Yt+iK+cI8itLbuxNGzjfcvfNJTe99rY9jXGB4RKkeg1SByLWsVMe4MQYGlXOOCUZM2ICp5VNfb6O+HixFqKlP549ENMQygE6dNGRnh58rGHF0W98es7H1qxRWLk1i/26Lkb1XenhcJcfGOYtzJRtT9MDLT701jNx1k5R8NYIovXJ+9qv6zSkrs8S3ThVShMr3oxFgUIWO8eM09CrTkZHR8tzTMs/RYw7277dxuNLG8eMOU6hE3AGterjOWwcihgZqeGVmAV2KNJSU6CjroaNLV12oXfh14s0O9u22sXRxApvXpxBvlDWHyAjVF4mJl9kQicQrH3u7eJCaZhIg+h2ZMPlvZ5X0vW2VQytNDF5+E5x8ZXXtFalZGcDoswgcA0VF1JwiAha5r3BKfb2DHTtsbN5qo/KQzbijoR5oapIqJKt4fi3VMdMyT1amxqIpJ4+AAgYNNTGgwkROruhpB/KYgqLqkIWPlyTw+fIEmhq8MolsCK/N+OBY0SvGR/y5v+GJHy1Zft86WX6oAGVM/9mHs2O5P/5bqz5H5DKBc8FYHRecp6MgP5xrGhqBTZstrF1no/KgjeoaB8mE1/HzOWppG1rgCuZdNCASAfJzdZSWaRh5jokhw010yk63c3R8zQkby5YksGxxgvknl5NULg1wbYO++hfzFl3+pFAz2TwGWbTMn96x8REzMnC27AByFeOrD94tcJ+Tkw1cNdnAeaP98kTcQKm0d5+DZSss7Nhuo66WUqiFRpnMFF8nUJQGsjMoZpzdg8gY0wRy8zT0Lzfw44uj6NVXh2GmA7XqozjeeK4ZtTWStJX7kO1ZRZ0tY/uTz7x77j2Chyx5RuKfTjPv3LsAZumFvs6gnFnRc5YER6FfVqJh8mUGhg32QGpsBNass/DxMgtHjthIJtTVDB7aPh8iUtcjfv/7vlqKAaQOkLvwbiU6xl0UwdnnRpDVyQNp07oU3n65CQd2W7BTIf0htzbj90WftPWqpU8tGjRV8JAPoNyZvzi+2nbyBggWcbtxrBZjbM9rHmmwSKlKS4Apl5kYPtRgKbR0mYVPVlmoq7VhUzPfTRmlaKRWgeFw4u2uo0sXHdnZYMpF1yIHXXvSxonjwIH9FkvPeJOssfztEqaiOpCdq2PshVGc/5MICjsb2LQuibdebsaBb1JwUjwTuLP2akm+shvgWKNux1OLe/0IQC1V+BLuCID8Wb9MHbWswFq5rL1k10JRATo5i6RSDeeNMVBZ6WDVpykeNUo/RuY+3V+vnhrOPtvEoME6I1lKFUPXoBHBC2fGIt8GLNth0k8+Z/umFNZ+lsLXOyy22SGs5qO1sNFjIzizh4FPPorjkJT6EBVuqQOqG8DjizsXAaghw0j3xBQMQMENdyWrgmvlku3lIGVnzw11cQLT4ORLcs3T0FtdoJnr20fDxRMiGDBAY4t6psmJPcwpM5wUNaRbpACmMmPnthQ+XJTEzs1kmrzPyxQ1NAe6oSEZ59zp1mK+roKIJHGfQbWe80GXbgBOBAEqnHlXkhpHfgft9rv861Zuk1ySrCQ8JdIIVHLT48ebGDfOYBHzXZ01XYZIf9XHCSz9ZwI11Z7PCfZ7JBXIMcnnKgfyyp4PWvbM53zQuVgAlFQjqPCGOxOHvdCVnOFxjnohtyYK9ojFOhV9qnt3HZMnmxg61ICu+2utsMjhUt5yZKm1GlXxWzZanIT3WGDeLdCylc9590FZplJ8XZCD6PmcD7u0ANAdycNhK5ih/iEQKeo6GP3dp7eOK6ZGUFERqFJlxJFiEM9Y9OBOuqGOnzQ7R2N+h1KFypjWyhbiprfmNeObbSnX56R1LNUIkTVkgJxVoJ5oEaDbmw7TngR33Uqsf7GZU3dbMN5RlniZ/Ho1DT3tUaZh0qQIhgw1GBF7mUjEq6G52WHtio1fJrFjm4WqSpvVThTBdHxxsYHyQSYGD9fRo5eBjCydgabWYETgm9Ym8M78OA58YykO3PNRnmNWajFZIYRyUApPfFQcGkEF/z774IpotKi/rG7dRphCumqkuMQt/IRcdpGp2LuXjssmmRg0yIAZ4cVoXZ2DTRssrFyWxMF9ts9AupwhZpmeE/mf2dPA2AsjGDLCRE6ezgCkjuPWjUm882oz9u0iWUvvB3kcxJeR3EyQESX5VomwhH185zMfV4wDUE3lhk/mp8/a8lo01vf8MHLj+3Joj6C07OKjAbVSe8h0/d59NFx2eQS9ehvYt9fG++8m8PVOixWoQsZ8M++vxbxIME0H/cojmDApirI+JvbuSmLR6wl8sy3p62CyCWT9btkBTd8ZotaWrkEVGdFk71n+/LJzrlJlnsZBSZB39YyVf87sNOrGMM7hkurJd1gkqfKuvt+/v4GSMzVs3WLj6GGRCj5fpfl6xvI8wQim14u66qgYZqJyv4Wvt3Cpl3Lv3yITvrLrqbR/lUNyUJ21bu5Lyy+hzuJJ1SiyTuJlU+bdXNh16sN0sO4OQLBHwCDKSHF9UWB7SnAF1PVFAXKnz1P/h9oa0QhPBUqfxnoHFmuBSMepdC7VXSBqP0f0d1zHLGu5kK5EmHoRwEfj//z1gtWz5gCoUwGiYjVrzNh7Rg0Y+OCHbPNYAJC21U1ZTVA4JOw8chYzYhq6dtNQ0l1HaXedtTOoGCWfc2ifhcoDNmtbUI/HTYXA1rv0rXj+Wi3M5wR9j/fcxqaqhy/+ZNt/0xIQNc3cUoM16wF0vvbGyi9ikcJu6lo4Q9tdyfBvZPI4iR8VBFLuKZQpJ48vLNRZq+Lc8yPo2SfdJ6VSDvbvtvHJ0jg2r03hxHFKTc8B+zqBIet0wXU8d8U3KO/KxqukXV319IryUQBoAyhtbHDbHW65ceU1qx/Nzhs5tb0c41OHgNpxcQjuDOO5P3qsiWnTY8gvTG9RKFaJ9XQWvNiMT5cmfP2cUFVSaEGNnLDGn5tiSqbUJr96Y96qi26XCqYCJIk6Z8KEx6YX95j5qF8Suc/xdpfSLrJAf0et2tX+jTxMWTuniw2oMDBxShQDBprMAqg+STpm4qLtm5JYvCCOnZu4EfRFTijniBpMrkgoPR+feqUZRQf7Gl66bfGae1+R/BMEiNIsC0CX6248+qVp5OS35XOCdsBVH+EvwnyNykn9KgxcekUU5YPNtD4zOewdm1J497Vm7BJqxQHyt034+dS2ilJLhvgcT8W82ouASzm1NU8u7zsSwDHJP4I03Mmj60epqp807b2HCvLG3RAm26p6yU+qtiD4vvQ1fg7ydqf2GaDj8mkxDBwWcUsKEqatG5J49/U4vt6S7nPC9ga0yDmB/UxqY06CRfd/LL76udc/u+I3Ir1ozxCbiSABsJWNkaNuGTV44ENLdD0WvrtUzkwox/j3PcsZlikZ1ifqM8DApKtjqBjKa5JtG1NY+Eozdm9vn88J90HhPifY/qDnNhJYf+SBS77Y/uTnspPYEkBsDzaAM6ZOW/F4Ts6/TVTVSzVZwX6Puj9HjbyWdsSr/omO793XwJRr+ZrRW/OasGeHrK2Udau2OKeNKr0lDjoR37jo1c9+cguAb9taemblD4DcUWPuHVve73dv6rpY6FL3IascE8oJgaZ7kJPEymyQw3r2NVjEtl1beednNXSgn9OR55YTx1dVj1zx6c6/rhRtVvnVBTZZYRrLVlgpiiZNev/P+Xmjr6YaTJXK0PZHC3sI03rSrrpwBgtGXrptCN+PdCo+R+UctngAGyea18yf/8XkXynRIzpL/P7CAHKjqLR0TJ/zx72yJGp2LmiPLwrbNeHrEync5dqEkN51a/0cOchT8TnBiE3a31Yv+fqmSw5WffpNWPS0BBC9Lrmo4OILnphVXHLVA7oWdavusN2m6Q5a7kzzy7LrrJUtczySwtfOQ3vKcjVCiESrRlD2rZRvFNFLNuLYX/fOHxevv/0ZoVxyS7Ar660BRGBTfdaJyo8pl3/wl/y8UZM1x0xrgoepguTKsLaJuq6lvq/uew6mgvQ5bnXfSj/HExK/z1F7znBSOBFf9/arn0+6V5QVDR3dxCnBI1+UQ+bxmmkb38iM9akIUy8aaEtqJ2sv7xtA6ncpBNkq+4/Y2rmvh9yxfk5LPkedyMbUnq3PfTrmSmEKqWp3fY8vfFrgIPUYWcTmDx1001lDB9+/IKLn8QXeQD+nxeo/hGO8lBLnUVQoGAH8WH7B4Fei1FUMNqOiX5UegZ7qpeya1PpDf5q6Zs/ctaIpFrq7VYLQeqXIj2Lr9gAKR4++b0Lf7rc9FjHyzJaqdo9L/Eu9cldF0Be5K7bud8Y48j5O6kA/p8WqnXLIqU1tOf7Mrau2PfS+WNaR+4DkdAcDKFTFwqKMvBHVaYXnnXP/xJ5ls/4a1fO57ZVFa4B0g6HeOseENdlFjzlk3aojPoepHa0AOjWp7cdfunvFtgfo61C0KNjYnq9FtSeCJB9RzU2kXTB65G/H9+3x80dNM9fUHCPQhuDfjWjVQau57Vsr55dqver2r6W3xTmOk4Ll1KW2HJ972+rtD9MX6qgZT6TM9vCmhUzghfYCJKVfRlJBRZ8Zw4cOvOvBzGiPCl2L+dof3KOEt0NC/ZT8ylKgzdsuoEJ2jEkOcpBAU3Lf9g2Vj923cd9LGwTnEDhsc15b4LQm8y19VjbWiJPyKJqmTFj0n7lZwy7XkQWdOe503yPiwt0VopJosL/DPi85R6ZwhziI7+W2nUbUxDe9M/+LKX8QUUNNeOKcdoNzKgDJz1AkUYuWLED+Bef+fXpx4fg7Y3phAUVTayriUztXdQKt2u/gcyzEkUxVVx+q//h/39t4NzW/aJcGSTmpla/OOh0RpKofWQDySdlU3HbrPKJ01JA/3pXXafhUU8+EzvATLVd35z3v0bUrdaQDbmc/x3bisJwm1DRvWvDJrgf/p6pm/UFRPlBKSSlvk3PCFKo9QIYdw/0h3zpDJT8Danj5TSN6lVx9Q27WgAkEkkERJf+BgI9jgr7mVHyOA8tpBoFzMr7j/V3H3npuw+6n6V9T0OYn2hBO5YMk4w6Dc6opFgYyeSWKJuImAiq7vPe15f26T5uWl1kx0dRoQScCQ6PFdaELwa9xt7KZwF9rWbDtFIiALaf+ZHXz1kU7j7z5xpZ98+mfmxAo9CCuIXcs/zPMqQZBu3xQe04uo0kCRRFFloC8U9bY4feP75w3clx2rOxsU8vpqlHLyTFgEKnDAFkFtVbyfI4F27HEF2NSIMlO2vVHGpr3rjnWuH7F8s0PkGyTn6EHpZKMmO/07yjUAXdE5tsLFI2a/dsKQeQEFj0oumIDe13br7hw1ODsjO79o2ZB94ie0y1m5PdOd8BAPFm9O2XVViWs6v31zQd3Har9fPPWPfN3CU4hMChS6LckYIoYd2Nve264rWO+b4BUEqdz8xDhYEnAKBXpb/pNakgPOia4kYgGSgOmaCAeoQelDf0mQORrKiinxDOtgXS6AFKBklwnI4vAkKDQ3xKc4L3QYCVIBIIESwUk+O9U2gqIDr9/ugEKS2fJV/J3a2LBnJI4ifw74Lc7POYOfeD/ADWy9TQ+rlehAAAAAElFTkSuQmCC;" vertex="1" parent="1">
          <mxGeometry width="120" height="120" as="geometry" />
        </mxCell>
      </root>
    </mxGraphModel>
  </diagram>
</mxfile>
